<?xml version="1.0" standalone="no"?><!DOCTYPE svg PUBLIC "-//W3C//DTD SVG 1.1//EN" "http://www.w3.org/Graphics/SVG/1.1/DTD/svg11.dtd"><svg class="icon" height="512" viewBox="0 0 1024 1024" version="1.1" xmlns="http://www.w3.org/2000/svg"><path d="M1004.8 76.8l-243.2 0c-6.4 0-12.8 0-19.2 6.4-6.4 6.4-12.8 12.8-6.4 217.6L512 300.8C499.2 300.8 492.8 313.6 492.8 320l0 198.4L268.8 518.4C256 524.8 243.2 531.2 243.2 544l0 198.4L19.2 742.4C12.8 748.8 0 755.2 0 768l0 224c0 12.8 12.8 19.2 19.2 19.2l979.2 0c12.8 0 19.2-12.8 19.2-19.2L1017.6 102.4C1024 89.6 1011.2 76.8 1004.8 76.8zM979.2 966.4 44.8 966.4l0-179.2 224 0c12.8 0 19.2-12.8 19.2-19.2L288 569.6 512 569.6c12.8 0 19.2-12.8 19.2-19.2L531.2 345.6l224 0c6.4 0 12.8 0 12.8-6.4 6.4-6.4 6.4-12.8 6.4-19.2 0-76.8 0-160 0-198.4l204.8 0L979.2 966.4zM12.8 588.8c0 0 6.4 0 6.4 0 6.4 0 12.8 0 12.8-6.4l531.2-531.2c6.4-6.4 6.4-25.6 0-32-6.4-6.4-25.6-6.4-32 0L44.8 512 44.8 320c0-12.8-12.8-19.2-19.2-19.2S0 313.6 0 320l0 243.2C0 576 6.4 582.4 12.8 588.8z" /></svg>